<!DOCTYPE svg PUBLIC "-//W3C//DTD SVG 1.1//EN" "http://www.w3.org/Graphics/SVG/1.1/DTD/svg11.dtd">
<!-- Uploaded to: SVG Repo, www.svgrepo.com, Transformed by: SVG Repo Mixer Tools -->
<svg width="800px" height="800px" viewBox="0 0 16 16" xmlns="http://www.w3.org/2000/svg" fill="#4E5773" stroke="#4E5773">
<g id="SVGRepo_bgCarrier" stroke-width="0"/>
<g id="SVGRepo_tracerCarrier" stroke-linecap="round" stroke-linejoin="round"/>
<g id="SVGRepo_iconCarrier"> <path d="M7 1C3.69 1 1 3.69 1 7s2.69 6 6 6a5.948 5.948 0 0 0 3.664-1.273l2.863 2.863 1.063-1.063-2.863-2.863A5.949 5.949 0 0 0 13 7c0-3.31-2.69-6-6-6zm0 1a5 5 0 0 1 5 5 5 5 0 0 1-5 5 5 5 0 0 1-5-5 5 5 0 0 1 5-5z" style="line-height:normal;font-variant-ligatures:none;font-variant-position:normal;font-variant-caps:normal;font-variant-numeric:normal;font-variant-alternates:normal;font-feature-settings:normal;text-indent:0;text-align:start;text-decoration-line:none;text-decoration-style:solid;text-decoration-color:#1b2174;text-transform:none;shape-padding:0;isolation:auto;mix-blend-mode:normal;marker:none" color="#1b2174" font-weight="400" font-family="sans-serif" white-space="normal" overflow="visible" fill="gray"/> </g>
</svg>